<svg width="1920" height="1080" viewBox="0 0 1920 1080" fill="none" xmlns="http://www.w3.org/2000/svg">
<mask id="mask0_351_1795" style="mask-type:alpha" maskUnits="userSpaceOnUse" x="0" y="0" width="1920" height="1080">
<rect width="1920" height="1080" fill="#D9D9D9"/>
</mask>
<g mask="url(#mask0_351_1795)">
<g opacity="0.2" filter="url(#filter0_f_351_1795)">
<path d="M969.511 781.032C812.395 940.4 322.644 1139.38 163.276 982.262C95.5516 862.166 297.659 800.865 398.57 453.049C489.041 173.215 846.288 130.457 1005.66 287.573C1165.02 444.688 1126.63 621.664 969.511 781.032Z" fill="url(#paint0_linear_351_1795)"/>
</g>
<g opacity="0.3" filter="url(#filter1_f_351_1795)">
<path d="M1117.39 870.793C1246.51 943.197 1594.28 979.655 1666.69 850.534C1739.09 721.413 1525.55 620.433 1432.9 536.734C1330.45 418.182 1076.16 434.741 1003.76 563.862C931.351 692.984 988.267 798.389 1117.39 870.793Z" fill="url(#paint1_linear_351_1795)"/>
</g>
<g opacity="0.5" filter="url(#filter2_f_351_1795)">
<path d="M759.585 629.972C809.232 627.044 949.953 693.106 953.806 758.409C957.658 823.711 871.209 851.609 831.101 866.233C742.24 876.345 685.372 793.784 681.52 728.482C677.668 663.179 709.938 632.901 759.585 629.972Z" fill="url(#paint2_radial_351_1795)"/>
</g>
</g>
<defs>
<filter id="filter0_f_351_1795" x="-194.321" y="-146.913" width="1646.22" height="1530.47" filterUnits="userSpaceOnUse" color-interpolation-filters="sRGB">
<feFlood flood-opacity="0" result="BackgroundImageFix"/>
<feBlend mode="normal" in="SourceGraphic" in2="BackgroundImageFix" result="shape"/>
<feGaussianBlur stdDeviation="172" result="effect1_foregroundBlur_351_1795"/>
</filter>
<filter id="filter1_f_351_1795" x="677.967" y="162.701" width="1297.43" height="1067.66" filterUnits="userSpaceOnUse" color-interpolation-filters="sRGB">
<feFlood flood-opacity="0" result="BackgroundImageFix"/>
<feBlend mode="normal" in="SourceGraphic" in2="BackgroundImageFix" result="shape"/>
<feGaussianBlur stdDeviation="147" result="effect1_foregroundBlur_351_1795"/>
</filter>
<filter id="filter2_f_351_1795" x="511.209" y="459.878" width="612.721" height="577.201" filterUnits="userSpaceOnUse" color-interpolation-filters="sRGB">
<feFlood flood-opacity="0" result="BackgroundImageFix"/>
<feBlend mode="normal" in="SourceGraphic" in2="BackgroundImageFix" result="shape"/>
<feGaussianBlur stdDeviation="85" result="effect1_foregroundBlur_351_1795"/>
</filter>
<linearGradient id="paint0_linear_351_1795" x1="411.534" y1="344.647" x2="769.096" y2="1052.27" gradientUnits="userSpaceOnUse">
<stop offset="0.19" stop-color="#FF6ED6"/>
<stop offset="1" stop-color="#B398FF"/>
</linearGradient>
<linearGradient id="paint1_linear_351_1795" x1="1249.8" y1="1038.27" x2="1621.95" y2="902.02" gradientUnits="userSpaceOnUse">
<stop stop-color="#81D9FF"/>
<stop offset="1" stop-color="#FFD66B"/>
</linearGradient>
<radialGradient id="paint2_radial_351_1795" cx="0" cy="0" r="1" gradientUnits="userSpaceOnUse" gradientTransform="translate(799.647 733.889) rotate(-58.1255) scale(99.4208 144.594)">
<stop stop-color="#B56BFF"/>
<stop offset="1" stop-color="#FBF5FE"/>
</radialGradient>
</defs>
</svg>
