<svg width="1920" height="1080" viewBox="0 0 1920 1080" fill="none" xmlns="http://www.w3.org/2000/svg">
<mask id="mask0_343_1577" style="mask-type:alpha" maskUnits="userSpaceOnUse" x="0" y="0" width="1920" height="1080">
<rect width="1920" height="1080" fill="#D9D9D9"/>
</mask>
<g mask="url(#mask0_343_1577)">
<g opacity="0.15" filter="url(#filter0_f_343_1577)">
<path d="M269.688 390.984C319.395 389.387 458.297 459.196 460.398 524.578C462.499 589.961 390.51 656.408 350.025 669.953C301.306 695.081 191.113 552.749 189.012 487.366C186.911 421.984 219.981 392.582 269.688 390.984Z" fill="url(#paint0_radial_343_1577)"/>
</g>
<g filter="url(#filter1_f_343_1577)">
<ellipse cx="218" cy="924" rx="510" ry="539" fill="url(#paint1_radial_343_1577)" fill-opacity="0.6"/>
</g>
<g opacity="0.3" filter="url(#filter2_f_343_1577)">
<ellipse cx="1432.5" cy="119.5" rx="418.5" ry="411.5" fill="url(#paint2_radial_343_1577)"/>
</g>
<g filter="url(#filter3_f_343_1577)">
<path d="M1325.48 922.999C1303.15 816.702 1518.59 591.94 1601.21 558.897C1756.91 502.492 1899.65 829.953 1794.43 944.653C1715.45 1030.74 1373.93 1298.96 1310.21 1195.22C1246.49 1091.49 1347.81 1029.3 1325.48 922.999Z" fill="url(#paint3_linear_343_1577)" fill-opacity="0.16"/>
</g>
</g>
<defs>
<filter id="filter0_f_343_1577" x="84.917" y="286.957" width="479.526" height="489.937" filterUnits="userSpaceOnUse" color-interpolation-filters="sRGB">
<feFlood flood-opacity="0" result="BackgroundImageFix"/>
<feBlend mode="normal" in="SourceGraphic" in2="BackgroundImageFix" result="shape"/>
<feGaussianBlur stdDeviation="52" result="effect1_foregroundBlur_343_1577"/>
</filter>
<filter id="filter1_f_343_1577" x="-392" y="285" width="1220" height="1278" filterUnits="userSpaceOnUse" color-interpolation-filters="sRGB">
<feFlood flood-opacity="0" result="BackgroundImageFix"/>
<feBlend mode="normal" in="SourceGraphic" in2="BackgroundImageFix" result="shape"/>
<feGaussianBlur stdDeviation="50" result="effect1_foregroundBlur_343_1577"/>
</filter>
<filter id="filter2_f_343_1577" x="914" y="-392" width="1037" height="1023" filterUnits="userSpaceOnUse" color-interpolation-filters="sRGB">
<feFlood flood-opacity="0" result="BackgroundImageFix"/>
<feBlend mode="normal" in="SourceGraphic" in2="BackgroundImageFix" result="shape"/>
<feGaussianBlur stdDeviation="50" result="effect1_foregroundBlur_343_1577"/>
</filter>
<filter id="filter3_f_343_1577" x="1088.85" y="352.421" width="941.734" height="1066.3" filterUnits="userSpaceOnUse" color-interpolation-filters="sRGB">
<feFlood flood-opacity="0" result="BackgroundImageFix"/>
<feBlend mode="normal" in="SourceGraphic" in2="BackgroundImageFix" result="shape"/>
<feGaussianBlur stdDeviation="100" result="effect1_foregroundBlur_343_1577"/>
</filter>
<radialGradient id="paint0_radial_343_1577" cx="0" cy="0" r="1" gradientUnits="userSpaceOnUse" gradientTransform="translate(367 575.5) rotate(-32.9416) scale(116.774 169.832)">
<stop offset="0.035" stop-color="#A9BCFF"/>
<stop offset="1" stop-color="white"/>
</radialGradient>
<radialGradient id="paint1_radial_343_1577" cx="0" cy="0" r="1" gradientUnits="userSpaceOnUse" gradientTransform="translate(218 924) rotate(90) scale(539 510)">
<stop stop-color="#42D68F" stop-opacity="0.4"/>
<stop offset="1" stop-color="white" stop-opacity="0"/>
</radialGradient>
<radialGradient id="paint2_radial_343_1577" cx="0" cy="0" r="1" gradientUnits="userSpaceOnUse" gradientTransform="translate(1433 134) rotate(91.6472) scale(539.223 548.396)">
<stop stop-color="#FFF38B"/>
<stop offset="1" stop-color="white" stop-opacity="0"/>
</radialGradient>
<linearGradient id="paint3_linear_343_1577" x1="1534.71" y1="749.597" x2="1676.08" y2="1139.83" gradientUnits="userSpaceOnUse">
<stop stop-color="#E6B1FF"/>
<stop offset="1" stop-color="#FC419B"/>
</linearGradient>
</defs>
</svg>
